<mxfile host="65bd71144e">
    <diagram id="7Xs3Dh6t4O_GCMgbwEb0" name="PÃ¡gina-1">
        <mxGraphModel dx="1800" dy="2355" grid="1" gridSize="10" guides="1" tooltips="1" connect="1" arrows="1" fold="1" page="1" pageScale="1" pageWidth="827" pageHeight="1169" math="0" shadow="0">
            <root>
                <mxCell id="0"/>
                <mxCell id="1" parent="0"/>
                <mxCell id="227" value="" style="whiteSpace=wrap;html=1;labelBackgroundColor=none;labelBorderColor=none;strokeWidth=1;fontSize=18;" parent="1" vertex="1">
                    <mxGeometry x="2241" y="820" width="609" height="390" as="geometry"/>
                </mxCell>
                <mxCell id="204" value="" style="rounded=0;whiteSpace=wrap;html=1;labelBackgroundColor=none;labelBorderColor=none;strokeWidth=1;fontSize=26;" parent="1" vertex="1">
                    <mxGeometry x="1840" y="48.5" width="830" height="640" as="geometry"/>
                </mxCell>
                <mxCell id="131" value="" style="whiteSpace=wrap;html=1;labelBackgroundColor=none;labelBorderColor=none;strokeWidth=1;fontSize=11;" parent="1" vertex="1">
                    <mxGeometry x="270" y="820" width="1420" height="440" as="geometry"/>
                </mxCell>
                <mxCell id="122" value="" style="whiteSpace=wrap;html=1;labelBackgroundColor=default;labelBorderColor=none;fontSize=11;fontColor=default;fillColor=none;strokeWidth=3;" parent="1" vertex="1">
                    <mxGeometry x="390" y="970" width="140" height="135" as="geometry"/>
                </mxCell>
                <mxCell id="123" value="" style="whiteSpace=wrap;html=1;labelBackgroundColor=default;labelBorderColor=none;fontSize=11;fontColor=#333333;fillColor=none;strokeWidth=3;strokeColor=#999999;" parent="1" vertex="1">
                    <mxGeometry x="575" y="940" width="210" height="180" as="geometry"/>
                </mxCell>
                <mxCell id="124" value="" style="whiteSpace=wrap;html=1;labelBackgroundColor=default;labelBorderColor=none;fontSize=11;fontColor=#333333;fillColor=none;strokeWidth=3;strokeColor=#3333FF;" parent="1" vertex="1">
                    <mxGeometry x="790" y="920" width="270" height="200" as="geometry"/>
                </mxCell>
                <mxCell id="125" value="" style="whiteSpace=wrap;html=1;labelBackgroundColor=default;labelBorderColor=none;fontSize=11;fontColor=#333333;fillColor=none;strokeWidth=3;strokeColor=#FF3333;" parent="1" vertex="1">
                    <mxGeometry x="1106" y="930" width="270" height="200" as="geometry"/>
                </mxCell>
                <mxCell id="55" value="" style="whiteSpace=wrap;html=1;labelBackgroundColor=default;labelBorderColor=none;fontSize=11;fontColor=none;" parent="1" vertex="1">
                    <mxGeometry x="210" y="20" width="320" height="650" as="geometry"/>
                </mxCell>
                <mxCell id="54" value="" style="whiteSpace=wrap;html=1;labelBackgroundColor=none;fontSize=11;fontColor=none;labelBorderColor=none;" parent="1" vertex="1">
                    <mxGeometry x="620" y="40" width="990" height="590" as="geometry"/>
                </mxCell>
                <mxCell id="5" value="&lt;div style=&quot;color: rgb(204, 208, 220); font-family: Consolas, &amp;quot;Courier New&amp;quot;, monospace; font-size: 28px; line-height: 19px;&quot;&gt;&lt;span style=&quot;color: rgb(198, 205, 226); font-style: italic; font-size: 28px;&quot;&gt;[7,5,1,8,3]&lt;/span&gt;&lt;/div&gt;" style="text;html=1;align=center;verticalAlign=middle;resizable=0;points=[];autosize=1;strokeColor=none;fillColor=none;fontSize=28;labelBackgroundColor=default;" parent="1" vertex="1">
                    <mxGeometry x="235" y="115" width="190" height="30" as="geometry"/>
                </mxCell>
                <mxCell id="6" value="" style="edgeStyle=none;orthogonalLoop=1;jettySize=auto;html=1;fontSize=28;fontColor=none;" parent="1" edge="1">
                    <mxGeometry width="100" relative="1" as="geometry">
                        <mxPoint x="325" y="160" as="sourcePoint"/>
                        <mxPoint x="270" y="200" as="targetPoint"/>
                        <Array as="points">
                            <mxPoint x="270" y="170"/>
                        </Array>
                    </mxGeometry>
                </mxCell>
                <mxCell id="7" value="[1, 5,7,8,3]" style="text;html=1;align=center;verticalAlign=middle;resizable=0;points=[];autosize=1;strokeColor=none;fillColor=none;fontSize=28;fontColor=none;" parent="1" vertex="1">
                    <mxGeometry x="250" y="200" width="160" height="50" as="geometry"/>
                </mxCell>
                <mxCell id="8" value="" style="edgeStyle=none;orthogonalLoop=1;jettySize=auto;html=1;endArrow=classic;startArrow=classic;endSize=8;startSize=8;fontSize=28;fontColor=none;fillColor=#f8cecc;strokeColor=#b85450;" parent="1" edge="1">
                    <mxGeometry width="100" relative="1" as="geometry">
                        <mxPoint x="270" y="100" as="sourcePoint"/>
                        <mxPoint x="330" y="100" as="targetPoint"/>
                        <Array as="points">
                            <mxPoint x="300" y="60"/>
                        </Array>
                    </mxGeometry>
                </mxCell>
                <mxCell id="9" value="" style="edgeStyle=none;orthogonalLoop=1;jettySize=auto;html=1;fontSize=28;fontColor=none;entryX=0.385;entryY=-0.021;entryDx=0;entryDy=0;entryPerimeter=0;" parent="1" target="10" edge="1">
                    <mxGeometry width="100" relative="1" as="geometry">
                        <mxPoint x="375" y="250" as="sourcePoint"/>
                        <mxPoint x="270" y="290" as="targetPoint"/>
                        <Array as="points">
                            <mxPoint x="320" y="260"/>
                        </Array>
                    </mxGeometry>
                </mxCell>
                <mxCell id="10" value="[1,3,7,8,5]" style="text;html=1;align=center;verticalAlign=middle;resizable=0;points=[];autosize=1;strokeColor=none;fillColor=none;fontSize=28;fontColor=none;" parent="1" vertex="1">
                    <mxGeometry x="255" y="290" width="150" height="50" as="geometry"/>
                </mxCell>
                <mxCell id="11" value="" style="edgeStyle=none;orthogonalLoop=1;jettySize=auto;html=1;fontSize=28;fontColor=none;entryX=0.533;entryY=0;entryDx=0;entryDy=0;entryPerimeter=0;" parent="1" target="12" edge="1">
                    <mxGeometry width="100" relative="1" as="geometry">
                        <mxPoint x="385" y="340" as="sourcePoint"/>
                        <mxPoint x="350" y="379" as="targetPoint"/>
                        <Array as="points">
                            <mxPoint x="330" y="350"/>
                        </Array>
                    </mxGeometry>
                </mxCell>
                <mxCell id="12" value="[1,3,5,8,7]" style="text;html=1;align=center;verticalAlign=middle;resizable=0;points=[];autosize=1;strokeColor=none;fillColor=none;fontSize=28;fontColor=none;" parent="1" vertex="1">
                    <mxGeometry x="250" y="400" width="150" height="50" as="geometry"/>
                </mxCell>
                <mxCell id="13" value="" style="edgeStyle=none;orthogonalLoop=1;jettySize=auto;html=1;endArrow=classic;startArrow=classic;endSize=8;startSize=8;fontSize=28;fontColor=none;fillColor=#f8cecc;strokeColor=#b85450;" parent="1" edge="1">
                    <mxGeometry width="100" relative="1" as="geometry">
                        <mxPoint x="317" y="205" as="sourcePoint"/>
                        <mxPoint x="377" y="205" as="targetPoint"/>
                        <Array as="points">
                            <mxPoint x="347" y="165"/>
                        </Array>
                    </mxGeometry>
                </mxCell>
                <mxCell id="14" value="" style="edgeStyle=none;orthogonalLoop=1;jettySize=auto;html=1;endArrow=classic;startArrow=classic;endSize=8;startSize=8;fontSize=28;fontColor=none;entryX=0.833;entryY=0.04;entryDx=0;entryDy=0;entryPerimeter=0;fillColor=#f8cecc;strokeColor=#b85450;" parent="1" target="10" edge="1">
                    <mxGeometry width="100" relative="1" as="geometry">
                        <mxPoint x="330" y="290" as="sourcePoint"/>
                        <mxPoint x="390" y="290" as="targetPoint"/>
                        <Array as="points">
                            <mxPoint x="360" y="250"/>
                        </Array>
                    </mxGeometry>
                </mxCell>
                <mxCell id="15" value="" style="edgeStyle=none;orthogonalLoop=1;jettySize=auto;html=1;endArrow=classic;startArrow=classic;endSize=8;startSize=8;fontSize=28;fontColor=none;entryX=0.847;entryY=-0.06;entryDx=0;entryDy=0;entryPerimeter=0;fillColor=#f8cecc;strokeColor=#b85450;" parent="1" target="12" edge="1">
                    <mxGeometry width="100" relative="1" as="geometry">
                        <mxPoint x="345" y="400" as="sourcePoint"/>
                        <mxPoint x="405" y="400" as="targetPoint"/>
                        <Array as="points">
                            <mxPoint x="375" y="360"/>
                        </Array>
                    </mxGeometry>
                </mxCell>
                <mxCell id="16" value="" style="edgeStyle=none;orthogonalLoop=1;jettySize=auto;html=1;fontSize=28;fontColor=none;entryX=0.533;entryY=0;entryDx=0;entryDy=0;entryPerimeter=0;" parent="1" edge="1">
                    <mxGeometry width="100" relative="1" as="geometry">
                        <mxPoint x="375.05" y="450" as="sourcePoint"/>
                        <mxPoint x="320.00000000000006" y="510" as="targetPoint"/>
                        <Array as="points">
                            <mxPoint x="320.05" y="460"/>
                        </Array>
                    </mxGeometry>
                </mxCell>
                <mxCell id="17" value="[1,3,5,7,8]" style="text;html=1;align=center;verticalAlign=middle;resizable=0;points=[];autosize=1;strokeColor=none;fillColor=none;fontSize=28;fontColor=none;" parent="1" vertex="1">
                    <mxGeometry x="220" y="510" width="150" height="50" as="geometry"/>
                </mxCell>
                <mxCell id="19" style="edgeStyle=none;html=1;fontSize=28;fontColor=none;" parent="1" source="18" target="17" edge="1">
                    <mxGeometry relative="1" as="geometry"/>
                </mxCell>
                <mxCell id="18" value="items ordenados&lt;br&gt;" style="text;html=1;align=center;verticalAlign=middle;resizable=0;points=[];autosize=1;strokeColor=none;fillColor=none;fontSize=28;fontColor=none;" parent="1" vertex="1">
                    <mxGeometry x="299" y="590" width="230" height="50" as="geometry"/>
                </mxCell>
                <mxCell id="20" value="Selection Sort" style="text;html=1;align=center;verticalAlign=middle;resizable=0;points=[];autosize=1;strokeColor=none;fillColor=none;fontSize=33;fontColor=default;fontStyle=1;labelBackgroundColor=default;" parent="1" vertex="1">
                    <mxGeometry x="250" y="-10" width="240" height="50" as="geometry"/>
                </mxCell>
                <mxCell id="21" value="Bubble Sort" style="text;html=1;align=center;verticalAlign=middle;resizable=0;points=[];autosize=1;strokeColor=none;fillColor=none;fontSize=33;fontColor=none;fontStyle=1;labelBackgroundColor=default;" parent="1" vertex="1">
                    <mxGeometry x="1020" y="10" width="210" height="50" as="geometry"/>
                </mxCell>
                <mxCell id="22" value="&lt;div style=&quot;color: rgb(204, 208, 220); font-family: Consolas, &amp;quot;Courier New&amp;quot;, monospace; font-size: 28px; line-height: 19px;&quot;&gt;&lt;span style=&quot;color: rgb(198, 205, 226); font-style: italic; font-size: 28px;&quot;&gt;[7,5,1,8,3]&lt;/span&gt;&lt;/div&gt;" style="text;html=1;align=center;verticalAlign=middle;resizable=0;points=[];autosize=1;strokeColor=none;fillColor=none;fontSize=28;labelBackgroundColor=default;" parent="1" vertex="1">
                    <mxGeometry x="685" y="115" width="190" height="30" as="geometry"/>
                </mxCell>
                <mxCell id="23" value="" style="edgeStyle=none;orthogonalLoop=1;jettySize=auto;html=1;endArrow=classic;startArrow=classic;endSize=8;startSize=8;fontSize=33;fontColor=none;" parent="1" edge="1">
                    <mxGeometry width="100" relative="1" as="geometry">
                        <mxPoint x="710" y="160" as="sourcePoint"/>
                        <mxPoint x="750" y="160" as="targetPoint"/>
                        <Array as="points">
                            <mxPoint x="710" y="180"/>
                            <mxPoint x="730" y="180"/>
                            <mxPoint x="750" y="180"/>
                        </Array>
                    </mxGeometry>
                </mxCell>
                <mxCell id="24" value="&lt;div style=&quot;color: rgb(204, 208, 220); font-family: Consolas, &amp;quot;Courier New&amp;quot;, monospace; font-size: 28px; line-height: 19px;&quot;&gt;&lt;span style=&quot;color: rgb(198, 205, 226); font-style: italic; font-size: 28px;&quot;&gt;[5,7,1,8,3]&lt;/span&gt;&lt;/div&gt;" style="text;html=1;align=center;verticalAlign=middle;resizable=0;points=[];autosize=1;strokeColor=none;fillColor=none;fontSize=28;labelBackgroundColor=default;" parent="1" vertex="1">
                    <mxGeometry x="685" y="230" width="190" height="30" as="geometry"/>
                </mxCell>
                <mxCell id="25" value="5 &amp;lt; 7 ? Troca : NÃ£o Troca" style="text;html=1;align=center;verticalAlign=middle;resizable=0;points=[];autosize=1;strokeColor=none;fillColor=none;fontSize=11;fontColor=none;" parent="1" vertex="1">
                    <mxGeometry x="705" y="85" width="150" height="30" as="geometry"/>
                </mxCell>
                <mxCell id="26" value="" style="edgeStyle=none;orthogonalLoop=1;jettySize=auto;html=1;endArrow=classic;startArrow=classic;endSize=8;startSize=8;fontSize=33;fontColor=none;" parent="1" edge="1">
                    <mxGeometry width="100" relative="1" as="geometry">
                        <mxPoint x="744" y="270" as="sourcePoint"/>
                        <mxPoint x="784" y="270" as="targetPoint"/>
                        <Array as="points">
                            <mxPoint x="744" y="290"/>
                            <mxPoint x="764" y="290"/>
                            <mxPoint x="784" y="290"/>
                        </Array>
                    </mxGeometry>
                </mxCell>
                <mxCell id="27" value="1 &amp;lt;&amp;nbsp; 7 ? Troca : NÃ£o Troca" style="text;html=1;align=center;verticalAlign=middle;resizable=0;points=[];autosize=1;strokeColor=none;fillColor=none;fontSize=11;fontColor=none;" parent="1" vertex="1">
                    <mxGeometry x="705" y="200" width="150" height="30" as="geometry"/>
                </mxCell>
                <mxCell id="28" value="Se n + 1 &amp;lt; n ? Troca : NÃ£o Troca" style="text;html=1;align=center;verticalAlign=middle;resizable=0;points=[];autosize=1;strokeColor=none;fillColor=none;fontSize=11;fontColor=none;" parent="1" vertex="1">
                    <mxGeometry x="695" y="55" width="180" height="30" as="geometry"/>
                </mxCell>
                <mxCell id="29" value="&lt;div style=&quot;color: rgb(204, 208, 220); font-family: Consolas, &amp;quot;Courier New&amp;quot;, monospace; font-size: 28px; line-height: 19px;&quot;&gt;&lt;span style=&quot;color: rgb(198, 205, 226); font-style: italic; font-size: 28px;&quot;&gt;[5,1,7,8,3]&lt;/span&gt;&lt;/div&gt;" style="text;html=1;align=center;verticalAlign=middle;resizable=0;points=[];autosize=1;strokeColor=none;fillColor=none;fontSize=28;labelBackgroundColor=default;" parent="1" vertex="1">
                    <mxGeometry x="680" y="320" width="190" height="30" as="geometry"/>
                </mxCell>
                <mxCell id="30" value="" style="edgeStyle=none;orthogonalLoop=1;jettySize=auto;html=1;endArrow=classic;startArrow=classic;endSize=8;startSize=8;fontSize=33;fontColor=none;" parent="1" edge="1">
                    <mxGeometry width="100" relative="1" as="geometry">
                        <mxPoint x="770" y="360" as="sourcePoint"/>
                        <mxPoint x="810" y="360" as="targetPoint"/>
                        <Array as="points">
                            <mxPoint x="770" y="380"/>
                            <mxPoint x="790" y="380"/>
                            <mxPoint x="810" y="380"/>
                        </Array>
                    </mxGeometry>
                </mxCell>
                <mxCell id="31" value="&lt;div style=&quot;color: rgb(204, 208, 220); font-family: Consolas, &amp;quot;Courier New&amp;quot;, monospace; font-size: 28px; line-height: 19px;&quot;&gt;&lt;span style=&quot;color: rgb(198, 205, 226); font-style: italic; font-size: 28px;&quot;&gt;[5,1,7,8,3]&lt;/span&gt;&lt;/div&gt;" style="text;html=1;align=center;verticalAlign=middle;resizable=0;points=[];autosize=1;strokeColor=none;fillColor=none;fontSize=28;labelBackgroundColor=default;" parent="1" vertex="1">
                    <mxGeometry x="690" y="410" width="190" height="30" as="geometry"/>
                </mxCell>
                <mxCell id="32" value="" style="edgeStyle=none;orthogonalLoop=1;jettySize=auto;html=1;endArrow=classic;startArrow=classic;endSize=8;startSize=8;fontSize=33;fontColor=none;" parent="1" edge="1">
                    <mxGeometry width="100" relative="1" as="geometry">
                        <mxPoint x="815" y="450" as="sourcePoint"/>
                        <mxPoint x="855" y="450" as="targetPoint"/>
                        <Array as="points">
                            <mxPoint x="815" y="470"/>
                            <mxPoint x="835" y="470"/>
                            <mxPoint x="855" y="470"/>
                        </Array>
                    </mxGeometry>
                </mxCell>
                <mxCell id="33" value="&lt;div style=&quot;color: rgb(204, 208, 220); font-family: Consolas, &amp;quot;Courier New&amp;quot;, monospace; font-size: 28px; line-height: 19px;&quot;&gt;&lt;span style=&quot;color: rgb(198, 205, 226); font-style: italic; font-size: 28px;&quot;&gt;[5,1,7,3,8]&lt;/span&gt;&lt;/div&gt;" style="text;html=1;align=center;verticalAlign=middle;resizable=0;points=[];autosize=1;strokeColor=none;fillColor=none;fontSize=28;labelBackgroundColor=default;" parent="1" vertex="1">
                    <mxGeometry x="695" y="480" width="190" height="30" as="geometry"/>
                </mxCell>
                <mxCell id="34" value="" style="edgeStyle=none;orthogonalLoop=1;jettySize=auto;html=1;endArrow=classic;startArrow=classic;endSize=8;startSize=8;fontSize=33;fontColor=none;" parent="1" edge="1">
                    <mxGeometry width="100" relative="1" as="geometry">
                        <mxPoint x="720" y="520" as="sourcePoint"/>
                        <mxPoint x="760" y="520" as="targetPoint"/>
                        <Array as="points">
                            <mxPoint x="720" y="540"/>
                            <mxPoint x="740" y="540"/>
                            <mxPoint x="760" y="540"/>
                        </Array>
                    </mxGeometry>
                </mxCell>
                <mxCell id="35" value="" style="shape=singleArrow;whiteSpace=wrap;html=1;arrowWidth=0.4;arrowSize=0.4;labelBackgroundColor=default;fontSize=11;fontColor=none;" parent="1" vertex="1">
                    <mxGeometry x="920" y="270" width="80" height="60" as="geometry"/>
                </mxCell>
                <mxCell id="36" value="&lt;div style=&quot;color: rgb(204, 208, 220); font-family: Consolas, &amp;quot;Courier New&amp;quot;, monospace; font-size: 28px; line-height: 19px;&quot;&gt;&lt;span style=&quot;color: rgb(198, 205, 226); font-style: italic; font-size: 28px;&quot;&gt;[5,1,7,3,8]&lt;/span&gt;&lt;/div&gt;" style="text;html=1;align=center;verticalAlign=middle;resizable=0;points=[];autosize=1;strokeColor=none;fillColor=none;fontSize=28;labelBackgroundColor=default;" parent="1" vertex="1">
                    <mxGeometry x="1030" y="115" width="190" height="30" as="geometry"/>
                </mxCell>
                <mxCell id="37" value="" style="edgeStyle=none;orthogonalLoop=1;jettySize=auto;html=1;endArrow=classic;startArrow=classic;endSize=8;startSize=8;fontSize=33;fontColor=none;" parent="1" edge="1">
                    <mxGeometry width="100" relative="1" as="geometry">
                        <mxPoint x="1055" y="155" as="sourcePoint"/>
                        <mxPoint x="1095" y="155" as="targetPoint"/>
                        <Array as="points">
                            <mxPoint x="1055" y="175"/>
                            <mxPoint x="1075" y="175"/>
                            <mxPoint x="1095" y="175"/>
                        </Array>
                    </mxGeometry>
                </mxCell>
                <mxCell id="38" value="&lt;div style=&quot;color: rgb(204, 208, 220); font-family: Consolas, &amp;quot;Courier New&amp;quot;, monospace; font-size: 28px; line-height: 19px;&quot;&gt;&lt;span style=&quot;color: rgb(198, 205, 226); font-style: italic; font-size: 28px;&quot;&gt;[1,5,7,3,8]&lt;/span&gt;&lt;/div&gt;" style="text;html=1;align=center;verticalAlign=middle;resizable=0;points=[];autosize=1;strokeColor=none;fillColor=none;fontSize=28;labelBackgroundColor=default;" parent="1" vertex="1">
                    <mxGeometry x="1030" y="195" width="190" height="30" as="geometry"/>
                </mxCell>
                <mxCell id="39" value="" style="edgeStyle=none;orthogonalLoop=1;jettySize=auto;html=1;endArrow=classic;startArrow=classic;endSize=8;startSize=8;fontSize=33;fontColor=none;" parent="1" edge="1">
                    <mxGeometry width="100" relative="1" as="geometry">
                        <mxPoint x="1090" y="230" as="sourcePoint"/>
                        <mxPoint x="1130" y="230" as="targetPoint"/>
                        <Array as="points">
                            <mxPoint x="1090" y="250"/>
                            <mxPoint x="1110" y="250"/>
                            <mxPoint x="1130" y="250"/>
                        </Array>
                    </mxGeometry>
                </mxCell>
                <mxCell id="41" value="&lt;div style=&quot;color: rgb(204, 208, 220); font-family: Consolas, &amp;quot;Courier New&amp;quot;, monospace; font-size: 28px; line-height: 19px;&quot;&gt;&lt;span style=&quot;color: rgb(198, 205, 226); font-style: italic; font-size: 28px;&quot;&gt;[1,5,7,3,8]&lt;/span&gt;&lt;/div&gt;" style="text;html=1;align=center;verticalAlign=middle;resizable=0;points=[];autosize=1;strokeColor=none;fillColor=none;fontSize=28;labelBackgroundColor=default;" parent="1" vertex="1">
                    <mxGeometry x="1040" y="275" width="190" height="30" as="geometry"/>
                </mxCell>
                <mxCell id="42" value="" style="edgeStyle=none;orthogonalLoop=1;jettySize=auto;html=1;endArrow=classic;startArrow=classic;endSize=8;startSize=8;fontSize=33;fontColor=none;" parent="1" edge="1">
                    <mxGeometry width="100" relative="1" as="geometry">
                        <mxPoint x="1130" y="310" as="sourcePoint"/>
                        <mxPoint x="1170" y="310" as="targetPoint"/>
                        <Array as="points">
                            <mxPoint x="1130" y="330"/>
                            <mxPoint x="1150" y="330"/>
                            <mxPoint x="1170" y="330"/>
                        </Array>
                    </mxGeometry>
                </mxCell>
                <mxCell id="43" value="&lt;div style=&quot;color: rgb(204, 208, 220); font-family: Consolas, &amp;quot;Courier New&amp;quot;, monospace; font-size: 28px; line-height: 19px;&quot;&gt;&lt;span style=&quot;color: rgb(198, 205, 226); font-style: italic; font-size: 28px;&quot;&gt;[1,5,3,7,8]&lt;/span&gt;&lt;/div&gt;" style="text;html=1;align=center;verticalAlign=middle;resizable=0;points=[];autosize=1;strokeColor=none;fillColor=none;fontSize=28;labelBackgroundColor=default;" parent="1" vertex="1">
                    <mxGeometry x="1040" y="355" width="190" height="30" as="geometry"/>
                </mxCell>
                <mxCell id="44" value="" style="edgeStyle=none;orthogonalLoop=1;jettySize=auto;html=1;endArrow=classic;startArrow=classic;endSize=8;startSize=8;fontSize=33;fontColor=none;" parent="1" edge="1">
                    <mxGeometry width="100" relative="1" as="geometry">
                        <mxPoint x="1160" y="390" as="sourcePoint"/>
                        <mxPoint x="1200" y="390" as="targetPoint"/>
                        <Array as="points">
                            <mxPoint x="1160" y="410"/>
                            <mxPoint x="1180" y="410"/>
                            <mxPoint x="1200" y="410"/>
                        </Array>
                    </mxGeometry>
                </mxCell>
                <mxCell id="45" value="" style="shape=singleArrow;whiteSpace=wrap;html=1;arrowWidth=0.4;arrowSize=0.4;labelBackgroundColor=default;fontSize=11;fontColor=none;" parent="1" vertex="1">
                    <mxGeometry x="1270.5" y="275" width="80" height="60" as="geometry"/>
                </mxCell>
                <mxCell id="46" value="&lt;div style=&quot;color: rgb(204, 208, 220); font-family: Consolas, &amp;quot;Courier New&amp;quot;, monospace; font-size: 28px; line-height: 19px;&quot;&gt;&lt;span style=&quot;color: rgb(198, 205, 226); font-style: italic; font-size: 28px;&quot;&gt;[1,5,3,7,8]&lt;/span&gt;&lt;/div&gt;" style="text;html=1;align=center;verticalAlign=middle;resizable=0;points=[];autosize=1;strokeColor=none;fillColor=none;fontSize=28;labelBackgroundColor=default;" parent="1" vertex="1">
                    <mxGeometry x="1350" y="115" width="190" height="30" as="geometry"/>
                </mxCell>
                <mxCell id="47" value="" style="edgeStyle=none;orthogonalLoop=1;jettySize=auto;html=1;endArrow=classic;startArrow=classic;endSize=8;startSize=8;fontSize=33;fontColor=none;" parent="1" edge="1">
                    <mxGeometry width="100" relative="1" as="geometry">
                        <mxPoint x="1380.0000000000002" y="160" as="sourcePoint"/>
                        <mxPoint x="1420.0000000000002" y="160" as="targetPoint"/>
                        <Array as="points">
                            <mxPoint x="1380" y="180"/>
                            <mxPoint x="1400" y="180"/>
                            <mxPoint x="1420" y="180"/>
                        </Array>
                    </mxGeometry>
                </mxCell>
                <mxCell id="48" value="&lt;div style=&quot;color: rgb(204, 208, 220); font-family: Consolas, &amp;quot;Courier New&amp;quot;, monospace; font-size: 28px; line-height: 19px;&quot;&gt;&lt;span style=&quot;color: rgb(198, 205, 226); font-style: italic; font-size: 28px;&quot;&gt;[1,5,3,7,8]&lt;/span&gt;&lt;/div&gt;" style="text;html=1;align=center;verticalAlign=middle;resizable=0;points=[];autosize=1;strokeColor=none;fillColor=none;fontSize=28;labelBackgroundColor=default;" parent="1" vertex="1">
                    <mxGeometry x="1350" y="200" width="190" height="30" as="geometry"/>
                </mxCell>
                <mxCell id="49" value="" style="edgeStyle=none;orthogonalLoop=1;jettySize=auto;html=1;endArrow=classic;startArrow=classic;endSize=8;startSize=8;fontSize=33;fontColor=none;" parent="1" edge="1">
                    <mxGeometry width="100" relative="1" as="geometry">
                        <mxPoint x="1410" y="240" as="sourcePoint"/>
                        <mxPoint x="1450" y="240" as="targetPoint"/>
                        <Array as="points">
                            <mxPoint x="1410" y="260"/>
                            <mxPoint x="1430" y="260"/>
                            <mxPoint x="1450" y="260"/>
                        </Array>
                    </mxGeometry>
                </mxCell>
                <mxCell id="50" value="&lt;div style=&quot;color: rgb(204, 208, 220); font-family: Consolas, &amp;quot;Courier New&amp;quot;, monospace; font-size: 28px; line-height: 19px;&quot;&gt;&lt;span style=&quot;color: rgb(198, 205, 226); font-style: italic; font-size: 28px;&quot;&gt;[1,3,5,7,8]&lt;/span&gt;&lt;/div&gt;" style="text;html=1;align=center;verticalAlign=middle;resizable=0;points=[];autosize=1;strokeColor=none;fillColor=none;fontSize=28;labelBackgroundColor=default;" parent="1" vertex="1">
                    <mxGeometry x="1360" y="290" width="190" height="30" as="geometry"/>
                </mxCell>
                <mxCell id="53" style="edgeStyle=none;html=1;entryX=0.517;entryY=0.984;entryDx=0;entryDy=0;entryPerimeter=0;fontSize=11;fontColor=none;" parent="1" source="52" target="50" edge="1">
                    <mxGeometry relative="1" as="geometry"/>
                </mxCell>
                <mxCell id="52" value="items ordenados&lt;br&gt;" style="text;html=1;align=center;verticalAlign=middle;resizable=0;points=[];autosize=1;strokeColor=none;fillColor=none;fontSize=28;fontColor=none;" parent="1" vertex="1">
                    <mxGeometry x="1360" y="450" width="230" height="50" as="geometry"/>
                </mxCell>
                <mxCell id="58" value="Inserction sort" style="text;html=1;align=center;verticalAlign=middle;resizable=0;points=[];autosize=1;strokeColor=none;fillColor=none;fontSize=33;fontColor=none;fontStyle=1;labelBackgroundColor=default;" parent="1" vertex="1">
                    <mxGeometry x="815" y="780" width="250" height="50" as="geometry"/>
                </mxCell>
                <mxCell id="127" style="edgeStyle=none;html=1;entryX=0.462;entryY=0.011;entryDx=0;entryDy=0;entryPerimeter=0;fontSize=11;fontColor=default;" parent="1" source="89" target="122" edge="1">
                    <mxGeometry relative="1" as="geometry"/>
                </mxCell>
                <mxCell id="128" style="edgeStyle=none;html=1;fontSize=11;fontColor=default;fillColor=#f5f5f5;strokeColor=#666666;" parent="1" source="89" edge="1">
                    <mxGeometry relative="1" as="geometry">
                        <mxPoint x="570" y="970" as="targetPoint"/>
                    </mxGeometry>
                </mxCell>
                <mxCell id="129" style="edgeStyle=none;html=1;entryX=0;entryY=0;entryDx=0;entryDy=0;fontSize=11;fontColor=default;fillColor=#dae8fc;strokeColor=#6c8ebf;" parent="1" source="89" target="124" edge="1">
                    <mxGeometry relative="1" as="geometry"/>
                </mxCell>
                <mxCell id="130" style="edgeStyle=none;html=1;fontSize=11;fontColor=default;entryX=0;entryY=0;entryDx=0;entryDy=0;fillColor=#ffe6cc;strokeColor=#d79b00;" parent="1" source="89" target="125" edge="1">
                    <mxGeometry relative="1" as="geometry">
                        <mxPoint x="920" y="890" as="targetPoint"/>
                        <Array as="points">
                            <mxPoint x="680" y="870"/>
                            <mxPoint x="1050" y="860"/>
                        </Array>
                    </mxGeometry>
                </mxCell>
                <mxCell id="89" value="&lt;div style=&quot;font-family: Consolas, &amp;quot;Courier New&amp;quot;, monospace; font-size: 28px; line-height: 19px;&quot;&gt;&lt;span style=&quot;font-style: italic; font-size: 28px;&quot;&gt;[5,1,7,3,8]&lt;/span&gt;&lt;/div&gt;" style="text;html=1;align=center;verticalAlign=middle;resizable=0;points=[];autosize=1;strokeColor=none;fillColor=none;fontSize=28;labelBackgroundColor=default;fontColor=default;" parent="1" vertex="1">
                    <mxGeometry x="405" y="900" width="190" height="30" as="geometry"/>
                </mxCell>
                <mxCell id="96" style="edgeStyle=none;html=1;fontSize=11;fontColor=default;" parent="1" source="90" edge="1">
                    <mxGeometry relative="1" as="geometry">
                        <mxPoint x="480" y="1050" as="targetPoint"/>
                    </mxGeometry>
                </mxCell>
                <mxCell id="90" value="&lt;div style=&quot;font-family: Consolas, &amp;quot;Courier New&amp;quot;, monospace; font-size: 28px; line-height: 19px;&quot;&gt;&lt;span style=&quot;font-style: italic; font-size: 28px;&quot;&gt;[5]&lt;/span&gt;&lt;/div&gt;" style="text;html=1;align=center;verticalAlign=middle;resizable=0;points=[];autosize=1;strokeColor=none;fillColor=none;fontSize=28;labelBackgroundColor=default;fontColor=default;" parent="1" vertex="1">
                    <mxGeometry x="400" y="1010" width="70" height="30" as="geometry"/>
                </mxCell>
                <mxCell id="93" value="" style="edgeStyle=none;orthogonalLoop=1;jettySize=auto;html=1;fontSize=11;fontColor=default;" parent="1" edge="1">
                    <mxGeometry width="100" relative="1" as="geometry">
                        <mxPoint x="470" y="850" as="sourcePoint"/>
                        <mxPoint x="470" y="900" as="targetPoint"/>
                        <Array as="points"/>
                    </mxGeometry>
                </mxCell>
                <mxCell id="94" value="Se 5&amp;nbsp; &amp;lt; 1" style="text;html=1;align=center;verticalAlign=middle;resizable=0;points=[];autosize=1;strokeColor=none;fillColor=none;fontSize=11;fontColor=default;" parent="1" vertex="1">
                    <mxGeometry x="440" y="980" width="70" height="30" as="geometry"/>
                </mxCell>
                <mxCell id="95" value="&lt;div style=&quot;font-family: Consolas, &amp;quot;Courier New&amp;quot;, monospace; font-size: 28px; line-height: 19px;&quot;&gt;&lt;span style=&quot;font-style: italic; font-size: 28px;&quot;&gt;[1 , 5]&lt;/span&gt;&lt;/div&gt;" style="text;html=1;align=center;verticalAlign=middle;resizable=0;points=[];autosize=1;strokeColor=none;fillColor=none;fontSize=28;labelBackgroundColor=default;fontColor=default;" parent="1" vertex="1">
                    <mxGeometry x="390" y="1060" width="130" height="30" as="geometry"/>
                </mxCell>
                <mxCell id="97" value="" style="edgeStyle=none;orthogonalLoop=1;jettySize=auto;html=1;fontSize=11;fontColor=default;fillColor=#f5f5f5;strokeColor=#666666;" parent="1" edge="1">
                    <mxGeometry width="100" relative="1" as="geometry">
                        <mxPoint x="499.63" y="850" as="sourcePoint"/>
                        <mxPoint x="499.63" y="900" as="targetPoint"/>
                        <Array as="points"/>
                    </mxGeometry>
                </mxCell>
                <mxCell id="99" value="&lt;div style=&quot;font-family: Consolas, &amp;quot;Courier New&amp;quot;, monospace; font-size: 28px; line-height: 19px;&quot;&gt;&lt;span style=&quot;font-style: italic; font-size: 28px;&quot;&gt;[1 , 5]&lt;/span&gt;&lt;/div&gt;" style="text;html=1;align=center;verticalAlign=middle;resizable=0;points=[];autosize=1;strokeColor=none;fillColor=none;fontSize=28;labelBackgroundColor=default;fontColor=default;" parent="1" vertex="1">
                    <mxGeometry x="575" y="1010" width="130" height="30" as="geometry"/>
                </mxCell>
                <mxCell id="101" style="edgeStyle=none;html=1;entryX=0.787;entryY=-0.115;entryDx=0;entryDy=0;entryPerimeter=0;fontSize=11;fontColor=default;" parent="1" source="100" target="99" edge="1">
                    <mxGeometry relative="1" as="geometry"/>
                </mxCell>
                <mxCell id="100" value="se 5 &amp;lt; 7" style="text;html=1;align=center;verticalAlign=middle;resizable=0;points=[];autosize=1;strokeColor=none;fillColor=none;fontSize=11;fontColor=default;" parent="1" vertex="1">
                    <mxGeometry x="720" y="955" width="60" height="30" as="geometry"/>
                </mxCell>
                <mxCell id="102" value="&lt;div style=&quot;font-family: Consolas, &amp;quot;Courier New&amp;quot;, monospace; font-size: 28px; line-height: 19px;&quot;&gt;&lt;span style=&quot;font-style: italic; font-size: 28px;&quot;&gt;[1 , 5, 7]&lt;/span&gt;&lt;/div&gt;" style="text;html=1;align=center;verticalAlign=middle;resizable=0;points=[];autosize=1;strokeColor=none;fillColor=none;fontSize=28;labelBackgroundColor=default;fontColor=default;" parent="1" vertex="1">
                    <mxGeometry x="575" y="1070" width="170" height="30" as="geometry"/>
                </mxCell>
                <mxCell id="103" value="" style="edgeStyle=none;orthogonalLoop=1;jettySize=auto;html=1;fontSize=11;fontColor=default;fillColor=#dae8fc;strokeColor=#6c8ebf;" parent="1" edge="1">
                    <mxGeometry width="100" relative="1" as="geometry">
                        <mxPoint x="530.0000000000001" y="850" as="sourcePoint"/>
                        <mxPoint x="530.0000000000001" y="900" as="targetPoint"/>
                        <Array as="points"/>
                    </mxGeometry>
                </mxCell>
                <mxCell id="112" style="edgeStyle=none;html=1;entryX=0.633;entryY=0.016;entryDx=0;entryDy=0;entryPerimeter=0;fontSize=11;fontColor=default;" parent="1" source="104" target="111" edge="1">
                    <mxGeometry relative="1" as="geometry"/>
                </mxCell>
                <mxCell id="104" value="&lt;div style=&quot;font-family: Consolas, &amp;quot;Courier New&amp;quot;, monospace; font-size: 28px; line-height: 19px;&quot;&gt;&lt;span style=&quot;font-style: italic; font-size: 28px;&quot;&gt;[1 , 5, 7]&lt;/span&gt;&lt;/div&gt;" style="text;html=1;align=center;verticalAlign=middle;resizable=0;points=[];autosize=1;strokeColor=none;fillColor=none;fontSize=28;labelBackgroundColor=default;fontColor=default;" parent="1" vertex="1">
                    <mxGeometry x="780" y="1010" width="170" height="30" as="geometry"/>
                </mxCell>
                <mxCell id="106" style="edgeStyle=none;html=1;entryX=0.863;entryY=-0.107;entryDx=0;entryDy=0;entryPerimeter=0;fontSize=11;fontColor=default;" parent="1" source="105" target="104" edge="1">
                    <mxGeometry relative="1" as="geometry"/>
                </mxCell>
                <mxCell id="105" value="se 7 &amp;gt; 3&amp;nbsp;" style="text;html=1;align=center;verticalAlign=middle;resizable=0;points=[];autosize=1;strokeColor=none;fillColor=none;fontSize=11;fontColor=default;" parent="1" vertex="1">
                    <mxGeometry x="1005" y="955" width="70" height="30" as="geometry"/>
                </mxCell>
                <mxCell id="108" style="edgeStyle=none;html=1;fontSize=11;fontColor=default;" parent="1" source="107" target="104" edge="1">
                    <mxGeometry relative="1" as="geometry"/>
                </mxCell>
                <mxCell id="107" value="se 5 &amp;gt; 3&amp;nbsp;" style="text;html=1;align=center;verticalAlign=middle;resizable=0;points=[];autosize=1;strokeColor=none;fillColor=none;fontSize=11;fontColor=default;" parent="1" vertex="1">
                    <mxGeometry x="910" y="940" width="70" height="30" as="geometry"/>
                </mxCell>
                <mxCell id="110" style="edgeStyle=none;html=1;entryX=0.17;entryY=-0.107;entryDx=0;entryDy=0;entryPerimeter=0;fontSize=11;fontColor=default;" parent="1" source="109" target="104" edge="1">
                    <mxGeometry relative="1" as="geometry"/>
                </mxCell>
                <mxCell id="109" value="se 1 &amp;gt; 3&amp;nbsp;" style="text;html=1;align=center;verticalAlign=middle;resizable=0;points=[];autosize=1;strokeColor=none;fillColor=none;fontSize=11;fontColor=default;" parent="1" vertex="1">
                    <mxGeometry x="815" y="930" width="70" height="30" as="geometry"/>
                </mxCell>
                <mxCell id="111" value="&lt;div style=&quot;font-family: Consolas, &amp;quot;Courier New&amp;quot;, monospace; font-size: 28px; line-height: 19px;&quot;&gt;&lt;span style=&quot;font-style: italic; font-size: 28px;&quot;&gt;[1 , 3, 5, 7]&lt;/span&gt;&lt;/div&gt;" style="text;html=1;align=center;verticalAlign=middle;resizable=0;points=[];autosize=1;strokeColor=none;fillColor=none;fontSize=28;labelBackgroundColor=default;fontColor=default;" parent="1" vertex="1">
                    <mxGeometry x="780" y="1080" width="220" height="30" as="geometry"/>
                </mxCell>
                <mxCell id="114" style="edgeStyle=none;html=1;entryX=0.863;entryY=-0.107;entryDx=0;entryDy=0;entryPerimeter=0;fontSize=11;fontColor=default;exitX=0.95;exitY=1.121;exitDx=0;exitDy=0;exitPerimeter=0;" parent="1" source="104" edge="1">
                    <mxGeometry relative="1" as="geometry">
                        <mxPoint x="1040" y="1054.5759634566157" as="sourcePoint"/>
                        <mxPoint x="961.7099999999998" y="1080" as="targetPoint"/>
                    </mxGeometry>
                </mxCell>
                <mxCell id="115" value="" style="edgeStyle=none;orthogonalLoop=1;jettySize=auto;html=1;fontSize=11;fontColor=default;fillColor=#ffe6cc;strokeColor=#d79b00;" parent="1" edge="1">
                    <mxGeometry width="100" relative="1" as="geometry">
                        <mxPoint x="560" y="850" as="sourcePoint"/>
                        <mxPoint x="560" y="900" as="targetPoint"/>
                        <Array as="points"/>
                    </mxGeometry>
                </mxCell>
                <mxCell id="116" value="&lt;div style=&quot;font-family: Consolas, &amp;quot;Courier New&amp;quot;, monospace; font-size: 28px; line-height: 19px;&quot;&gt;&lt;span style=&quot;font-style: italic; font-size: 28px;&quot;&gt;[1 , 3, 5, 7]&lt;/span&gt;&lt;/div&gt;" style="text;html=1;align=center;verticalAlign=middle;resizable=0;points=[];autosize=1;strokeColor=none;fillColor=none;fontSize=28;labelBackgroundColor=default;fontColor=default;" parent="1" vertex="1">
                    <mxGeometry x="1120" y="1010" width="220" height="30" as="geometry"/>
                </mxCell>
                <mxCell id="118" style="edgeStyle=none;html=1;fontSize=11;fontColor=default;entryX=0.818;entryY=0;entryDx=0;entryDy=0;entryPerimeter=0;" parent="1" source="117" target="116" edge="1">
                    <mxGeometry relative="1" as="geometry"/>
                </mxCell>
                <mxCell id="117" value="se 7 &amp;gt; 8" style="text;html=1;align=center;verticalAlign=middle;resizable=0;points=[];autosize=1;strokeColor=none;fillColor=none;fontSize=11;fontColor=default;" parent="1" vertex="1">
                    <mxGeometry x="1310" y="930" width="60" height="30" as="geometry"/>
                </mxCell>
                <mxCell id="119" value="&lt;div style=&quot;font-family: Consolas, &amp;quot;Courier New&amp;quot;, monospace; font-size: 28px; line-height: 19px;&quot;&gt;&lt;span style=&quot;font-style: italic; font-size: 28px;&quot;&gt;[1 , 3, 5, 7, 8]&lt;/span&gt;&lt;/div&gt;" style="text;html=1;align=center;verticalAlign=middle;resizable=0;points=[];autosize=1;strokeColor=none;fillColor=none;fontSize=28;labelBackgroundColor=default;fontColor=default;" parent="1" vertex="1">
                    <mxGeometry x="1106" y="1080" width="260" height="30" as="geometry"/>
                </mxCell>
                <mxCell id="121" style="edgeStyle=none;html=1;fontSize=11;fontColor=default;" parent="1" source="120" target="119" edge="1">
                    <mxGeometry relative="1" as="geometry"/>
                </mxCell>
                <mxCell id="120" value="items ordenados&lt;br&gt;" style="text;html=1;align=center;verticalAlign=middle;resizable=0;points=[];autosize=1;strokeColor=none;fillColor=none;fontSize=28;fontColor=none;" parent="1" vertex="1">
                    <mxGeometry x="1430" y="1070" width="230" height="50" as="geometry"/>
                </mxCell>
                <mxCell id="133" value="Quick Sort" style="text;html=1;align=center;verticalAlign=middle;resizable=0;points=[];autosize=1;fontSize=26;fontStyle=1;fillColor=#f5f5f5;fontColor=#333333;strokeColor=#666666;" parent="1" vertex="1">
                    <mxGeometry x="2191" y="30" width="150" height="40" as="geometry"/>
                </mxCell>
                <mxCell id="134" value="&lt;div style=&quot;font-family: Consolas, &amp;quot;Courier New&amp;quot;, monospace; font-size: 28px; line-height: 19px;&quot;&gt;&lt;span style=&quot;font-style: italic; font-size: 28px;&quot;&gt;[ 5 , 1 , 7 , 3 , 8 ]&lt;/span&gt;&lt;/div&gt;" style="text;html=1;align=center;verticalAlign=middle;resizable=0;points=[];autosize=1;strokeColor=none;fillColor=none;fontSize=28;labelBackgroundColor=default;fontColor=default;" parent="1" vertex="1">
                    <mxGeometry x="1866" y="160" width="340" height="30" as="geometry"/>
                </mxCell>
                <mxCell id="137" value="" style="whiteSpace=wrap;html=1;labelBackgroundColor=none;labelBorderColor=none;strokeColor=none;strokeWidth=1;fontSize=26;fontColor=default;fillColor=#FF3333;" parent="1" vertex="1">
                    <mxGeometry x="2141" y="190" width="20" height="4" as="geometry"/>
                </mxCell>
                <mxCell id="139" value="" style="whiteSpace=wrap;html=1;labelBackgroundColor=none;labelBorderColor=none;strokeColor=none;strokeWidth=1;fontSize=26;fontColor=default;fillColor=#FFFF33;rotation=-90;" parent="1" vertex="1">
                    <mxGeometry x="1871" y="176" width="45" height="4" as="geometry"/>
                </mxCell>
                <mxCell id="140" value="" style="whiteSpace=wrap;html=1;labelBackgroundColor=none;labelBorderColor=none;strokeColor=none;strokeWidth=1;fontSize=26;fontColor=default;fillColor=#330066;rotation=-90;" parent="1" vertex="1">
                    <mxGeometry x="1881" y="175" width="45" height="4" as="geometry"/>
                </mxCell>
                <mxCell id="141" value="&lt;div style=&quot;font-family: Consolas, &amp;quot;Courier New&amp;quot;, monospace; font-size: 28px; line-height: 19px;&quot;&gt;&lt;span style=&quot;font-style: italic; font-size: 28px;&quot;&gt;[ 5 , 1 , 7 , 3 , 8 ]&lt;/span&gt;&lt;/div&gt;" style="text;html=1;align=center;verticalAlign=middle;resizable=0;points=[];autosize=1;strokeColor=none;fillColor=none;fontSize=28;labelBackgroundColor=default;fontColor=default;" parent="1" vertex="1">
                    <mxGeometry x="1861" y="246" width="340" height="30" as="geometry"/>
                </mxCell>
                <mxCell id="142" value="" style="whiteSpace=wrap;html=1;labelBackgroundColor=none;labelBorderColor=none;strokeColor=none;strokeWidth=1;fontSize=26;fontColor=default;fillColor=#FF3333;" parent="1" vertex="1">
                    <mxGeometry x="2136" y="276" width="20" height="4" as="geometry"/>
                </mxCell>
                <mxCell id="143" value="" style="whiteSpace=wrap;html=1;labelBackgroundColor=none;labelBorderColor=none;strokeColor=none;strokeWidth=1;fontSize=26;fontColor=default;fillColor=#FFFF33;rotation=-90;" parent="1" vertex="1">
                    <mxGeometry x="1871" y="262" width="45" height="4" as="geometry"/>
                </mxCell>
                <mxCell id="144" value="" style="whiteSpace=wrap;html=1;labelBackgroundColor=none;labelBorderColor=none;strokeColor=none;strokeWidth=1;fontSize=26;fontColor=default;fillColor=#330066;rotation=-90;" parent="1" vertex="1">
                    <mxGeometry x="1926" y="263" width="45" height="4" as="geometry"/>
                </mxCell>
                <mxCell id="145" value="&lt;div style=&quot;font-family: Consolas, &amp;quot;Courier New&amp;quot;, monospace; font-size: 28px; line-height: 19px;&quot;&gt;&lt;span style=&quot;font-style: italic; font-size: 28px;&quot;&gt;[ 5 , 1 , 7 , 3 , 8 ]&lt;/span&gt;&lt;/div&gt;" style="text;html=1;align=center;verticalAlign=middle;resizable=0;points=[];autosize=1;strokeColor=none;fillColor=none;fontSize=28;labelBackgroundColor=default;fontColor=default;" parent="1" vertex="1">
                    <mxGeometry x="1861" y="300" width="340" height="30" as="geometry"/>
                </mxCell>
                <mxCell id="146" value="" style="whiteSpace=wrap;html=1;labelBackgroundColor=none;labelBorderColor=none;strokeColor=none;strokeWidth=1;fontSize=26;fontColor=default;fillColor=#FF3333;" parent="1" vertex="1">
                    <mxGeometry x="2136" y="330" width="20" height="4" as="geometry"/>
                </mxCell>
                <mxCell id="147" value="" style="whiteSpace=wrap;html=1;labelBackgroundColor=none;labelBorderColor=none;strokeColor=none;strokeWidth=1;fontSize=26;fontColor=default;fillColor=#FFFF33;rotation=-90;" parent="1" vertex="1">
                    <mxGeometry x="1926" y="312.5" width="45" height="4" as="geometry"/>
                </mxCell>
                <mxCell id="148" value="" style="whiteSpace=wrap;html=1;labelBackgroundColor=none;labelBorderColor=none;strokeColor=none;strokeWidth=1;fontSize=26;fontColor=default;fillColor=#330066;rotation=-90;" parent="1" vertex="1">
                    <mxGeometry x="1981" y="313.5" width="45" height="4" as="geometry"/>
                </mxCell>
                <mxCell id="149" value="&lt;div style=&quot;font-family: Consolas, &amp;quot;Courier New&amp;quot;, monospace; font-size: 28px; line-height: 19px;&quot;&gt;&lt;span style=&quot;font-style: italic; font-size: 28px;&quot;&gt;[ 5 , 1 , 7 , 3 , 8 ]&lt;/span&gt;&lt;/div&gt;" style="text;html=1;align=center;verticalAlign=middle;resizable=0;points=[];autosize=1;strokeColor=none;fillColor=none;fontSize=28;labelBackgroundColor=default;fontColor=default;" parent="1" vertex="1">
                    <mxGeometry x="1861" y="366" width="340" height="30" as="geometry"/>
                </mxCell>
                <mxCell id="150" value="" style="whiteSpace=wrap;html=1;labelBackgroundColor=none;labelBorderColor=none;strokeColor=none;strokeWidth=1;fontSize=26;fontColor=default;fillColor=#FF3333;" parent="1" vertex="1">
                    <mxGeometry x="2136" y="396" width="20" height="4" as="geometry"/>
                </mxCell>
                <mxCell id="151" value="" style="whiteSpace=wrap;html=1;labelBackgroundColor=none;labelBorderColor=none;strokeColor=none;strokeWidth=1;fontSize=26;fontColor=default;fillColor=#FFFF33;rotation=-90;" parent="1" vertex="1">
                    <mxGeometry x="2001" y="378.5" width="45" height="4" as="geometry"/>
                </mxCell>
                <mxCell id="152" value="" style="whiteSpace=wrap;html=1;labelBackgroundColor=none;labelBorderColor=none;strokeColor=none;strokeWidth=1;fontSize=26;fontColor=default;fillColor=#330066;rotation=-90;" parent="1" vertex="1">
                    <mxGeometry x="2056" y="379.5" width="45" height="4" as="geometry"/>
                </mxCell>
                <mxCell id="153" value="&lt;div style=&quot;font-family: Consolas, &amp;quot;Courier New&amp;quot;, monospace; font-size: 28px; line-height: 19px;&quot;&gt;&lt;span style=&quot;font-style: italic; font-size: 28px;&quot;&gt;[ 5 , 1 , 7 , 3 , 8 ]&lt;/span&gt;&lt;/div&gt;" style="text;html=1;align=center;verticalAlign=middle;resizable=0;points=[];autosize=1;strokeColor=none;fillColor=none;fontSize=28;labelBackgroundColor=default;fontColor=default;" parent="1" vertex="1">
                    <mxGeometry x="1861" y="440" width="340" height="30" as="geometry"/>
                </mxCell>
                <mxCell id="154" value="" style="whiteSpace=wrap;html=1;labelBackgroundColor=none;labelBorderColor=none;strokeColor=none;strokeWidth=1;fontSize=26;fontColor=default;fillColor=#FF3333;" parent="1" vertex="1">
                    <mxGeometry x="2136" y="470" width="20" height="4" as="geometry"/>
                </mxCell>
                <mxCell id="155" value="" style="whiteSpace=wrap;html=1;labelBackgroundColor=none;labelBorderColor=none;strokeColor=none;strokeWidth=1;fontSize=26;fontColor=default;fillColor=#FFFF33;rotation=-90;" parent="1" vertex="1">
                    <mxGeometry x="2056" y="452.5" width="45" height="4" as="geometry"/>
                </mxCell>
                <mxCell id="156" value="" style="whiteSpace=wrap;html=1;labelBackgroundColor=none;labelBorderColor=none;strokeColor=none;strokeWidth=1;fontSize=26;fontColor=default;fillColor=#330066;rotation=-90;" parent="1" vertex="1">
                    <mxGeometry x="2111" y="453.5" width="45" height="4" as="geometry"/>
                </mxCell>
                <mxCell id="157" value="" style="shape=singleArrow;whiteSpace=wrap;html=1;arrowWidth=0.4;arrowSize=0.4;labelBackgroundColor=none;labelBorderColor=none;strokeWidth=1;fontSize=26;" parent="1" vertex="1">
                    <mxGeometry x="2241" y="280" width="80" height="60" as="geometry"/>
                </mxCell>
                <mxCell id="158" value="&lt;div style=&quot;font-family: Consolas, &amp;quot;Courier New&amp;quot;, monospace; font-size: 28px; line-height: 19px;&quot;&gt;&lt;span style=&quot;font-style: italic; font-size: 28px;&quot;&gt;[ 5 , 1 , 7 , 3 , 8 ]&lt;/span&gt;&lt;/div&gt;" style="text;html=1;align=center;verticalAlign=middle;resizable=0;points=[];autosize=1;strokeColor=none;fillColor=none;fontSize=28;labelBackgroundColor=default;fontColor=default;" parent="1" vertex="1">
                    <mxGeometry x="2321" y="166" width="340" height="30" as="geometry"/>
                </mxCell>
                <mxCell id="159" value="" style="whiteSpace=wrap;html=1;labelBackgroundColor=none;labelBorderColor=none;strokeColor=none;strokeWidth=1;fontSize=26;fontColor=default;fillColor=#FF3333;" parent="1" vertex="1">
                    <mxGeometry x="2541" y="196" width="20" height="4" as="geometry"/>
                </mxCell>
                <mxCell id="160" value="" style="whiteSpace=wrap;html=1;labelBackgroundColor=none;labelBorderColor=none;strokeColor=none;strokeWidth=1;fontSize=26;fontColor=default;fillColor=#FFFF33;rotation=-90;" parent="1" vertex="1">
                    <mxGeometry x="2331" y="180" width="45" height="4" as="geometry"/>
                </mxCell>
                <mxCell id="161" value="" style="whiteSpace=wrap;html=1;labelBackgroundColor=none;labelBorderColor=none;strokeColor=none;strokeWidth=1;fontSize=26;fontColor=default;fillColor=#330066;rotation=-90;" parent="1" vertex="1">
                    <mxGeometry x="2341" y="180" width="45" height="4" as="geometry"/>
                </mxCell>
                <mxCell id="162" value="" style="endArrow=none;dashed=1;html=1;fontSize=26;fontColor=default;" parent="1" edge="1">
                    <mxGeometry width="50" height="50" relative="1" as="geometry">
                        <mxPoint x="2591" y="206.5" as="sourcePoint"/>
                        <mxPoint x="2591" y="156.5" as="targetPoint"/>
                    </mxGeometry>
                </mxCell>
                <mxCell id="164" value="&lt;div style=&quot;font-family: Consolas, &amp;quot;Courier New&amp;quot;, monospace; font-size: 28px; line-height: 19px;&quot;&gt;&lt;span style=&quot;font-style: italic; font-size: 28px;&quot;&gt;[ 5 , 1 , 7 , 3 , 8 ]&lt;/span&gt;&lt;/div&gt;" style="text;html=1;align=center;verticalAlign=middle;resizable=0;points=[];autosize=1;strokeColor=none;fillColor=none;fontSize=28;labelBackgroundColor=default;fontColor=default;" parent="1" vertex="1">
                    <mxGeometry x="2321" y="229.5" width="340" height="30" as="geometry"/>
                </mxCell>
                <mxCell id="165" value="" style="whiteSpace=wrap;html=1;labelBackgroundColor=none;labelBorderColor=none;strokeColor=none;strokeWidth=1;fontSize=26;fontColor=default;fillColor=#FF3333;" parent="1" vertex="1">
                    <mxGeometry x="2541" y="259.5" width="20" height="4" as="geometry"/>
                </mxCell>
                <mxCell id="166" value="" style="whiteSpace=wrap;html=1;labelBackgroundColor=none;labelBorderColor=none;strokeColor=none;strokeWidth=1;fontSize=26;fontColor=default;fillColor=#FFFF33;rotation=-90;" parent="1" vertex="1">
                    <mxGeometry x="2331" y="243.5" width="45" height="4" as="geometry"/>
                </mxCell>
                <mxCell id="167" value="" style="whiteSpace=wrap;html=1;labelBackgroundColor=none;labelBorderColor=none;strokeColor=none;strokeWidth=1;fontSize=26;fontColor=default;fillColor=#330066;rotation=-90;" parent="1" vertex="1">
                    <mxGeometry x="2386" y="243.5" width="45" height="4" as="geometry"/>
                </mxCell>
                <mxCell id="168" value="" style="endArrow=none;dashed=1;html=1;fontSize=26;fontColor=default;" parent="1" edge="1">
                    <mxGeometry width="50" height="50" relative="1" as="geometry">
                        <mxPoint x="2591" y="270" as="sourcePoint"/>
                        <mxPoint x="2591" y="220" as="targetPoint"/>
                    </mxGeometry>
                </mxCell>
                <mxCell id="174" value="&lt;div style=&quot;font-family: Consolas, &amp;quot;Courier New&amp;quot;, monospace; font-size: 28px; line-height: 19px;&quot;&gt;&lt;span style=&quot;font-style: italic; font-size: 28px;&quot;&gt;[ 1 , 5 , 7 , 3 , 8 ]&lt;/span&gt;&lt;/div&gt;" style="text;html=1;align=center;verticalAlign=middle;resizable=0;points=[];autosize=1;strokeColor=none;fillColor=none;fontSize=28;labelBackgroundColor=default;fontColor=default;" parent="1" vertex="1">
                    <mxGeometry x="2321" y="299" width="340" height="30" as="geometry"/>
                </mxCell>
                <mxCell id="175" value="" style="whiteSpace=wrap;html=1;labelBackgroundColor=none;labelBorderColor=none;strokeColor=none;strokeWidth=1;fontSize=26;fontColor=default;fillColor=#FF3333;" parent="1" vertex="1">
                    <mxGeometry x="2541" y="329" width="20" height="4" as="geometry"/>
                </mxCell>
                <mxCell id="176" value="" style="whiteSpace=wrap;html=1;labelBackgroundColor=none;labelBorderColor=none;strokeColor=none;strokeWidth=1;fontSize=26;fontColor=default;fillColor=#FFFF33;rotation=-90;" parent="1" vertex="1">
                    <mxGeometry x="2386" y="309.5" width="45" height="4" as="geometry"/>
                </mxCell>
                <mxCell id="177" value="" style="whiteSpace=wrap;html=1;labelBackgroundColor=none;labelBorderColor=none;strokeColor=none;strokeWidth=1;fontSize=26;fontColor=default;fillColor=#330066;rotation=-90;" parent="1" vertex="1">
                    <mxGeometry x="2441" y="309.5" width="45" height="4" as="geometry"/>
                </mxCell>
                <mxCell id="178" value="" style="endArrow=none;dashed=1;html=1;fontSize=26;fontColor=default;" parent="1" edge="1">
                    <mxGeometry width="50" height="50" relative="1" as="geometry">
                        <mxPoint x="2591.0000000000005" y="339.5000000000002" as="sourcePoint"/>
                        <mxPoint x="2591.0000000000005" y="289.5" as="targetPoint"/>
                    </mxGeometry>
                </mxCell>
                <mxCell id="179" value="&lt;div style=&quot;font-family: Consolas, &amp;quot;Courier New&amp;quot;, monospace; font-size: 28px; line-height: 19px;&quot;&gt;&lt;span style=&quot;font-style: italic; font-size: 28px;&quot;&gt;[ 1 , 5 , 7 , 3 , 8 ]&lt;/span&gt;&lt;/div&gt;" style="text;html=1;align=center;verticalAlign=middle;resizable=0;points=[];autosize=1;strokeColor=none;fillColor=none;fontSize=28;labelBackgroundColor=default;fontColor=default;" parent="1" vertex="1">
                    <mxGeometry x="2311" y="353.5" width="340" height="30" as="geometry"/>
                </mxCell>
                <mxCell id="180" value="" style="whiteSpace=wrap;html=1;labelBackgroundColor=none;labelBorderColor=none;strokeColor=none;strokeWidth=1;fontSize=26;fontColor=default;fillColor=#FF3333;" parent="1" vertex="1">
                    <mxGeometry x="2531" y="382.5" width="20" height="4" as="geometry"/>
                </mxCell>
                <mxCell id="181" value="" style="whiteSpace=wrap;html=1;labelBackgroundColor=none;labelBorderColor=none;strokeColor=none;strokeWidth=1;fontSize=26;fontColor=default;fillColor=#FFFF33;rotation=-90;" parent="1" vertex="1">
                    <mxGeometry x="2386" y="360" width="45" height="4" as="geometry"/>
                </mxCell>
                <mxCell id="182" value="" style="whiteSpace=wrap;html=1;labelBackgroundColor=none;labelBorderColor=none;strokeColor=none;strokeWidth=1;fontSize=26;fontColor=default;fillColor=#330066;rotation=-90;" parent="1" vertex="1">
                    <mxGeometry x="2496" y="364" width="45" height="4" as="geometry"/>
                </mxCell>
                <mxCell id="183" value="" style="endArrow=none;dashed=1;html=1;fontSize=26;fontColor=default;" parent="1" edge="1">
                    <mxGeometry width="50" height="50" relative="1" as="geometry">
                        <mxPoint x="2591.0000000000005" y="390.0000000000002" as="sourcePoint"/>
                        <mxPoint x="2591.0000000000005" y="339.9999999999998" as="targetPoint"/>
                    </mxGeometry>
                </mxCell>
                <mxCell id="189" value="&lt;div style=&quot;font-family: Consolas, &amp;quot;Courier New&amp;quot;, monospace; font-size: 28px; line-height: 19px;&quot;&gt;&lt;span style=&quot;font-style: italic; font-size: 28px;&quot;&gt;[ 1 , 3 , 5 , 7 , 8 ]&lt;/span&gt;&lt;/div&gt;" style="text;html=1;align=center;verticalAlign=middle;resizable=0;points=[];autosize=1;strokeColor=none;fillColor=none;fontSize=28;labelBackgroundColor=default;fontColor=default;" parent="1" vertex="1">
                    <mxGeometry x="2311" y="423.5" width="340" height="30" as="geometry"/>
                </mxCell>
                <mxCell id="190" value="" style="whiteSpace=wrap;html=1;labelBackgroundColor=none;labelBorderColor=none;strokeColor=none;strokeWidth=1;fontSize=26;fontColor=default;fillColor=#FF3333;" parent="1" vertex="1">
                    <mxGeometry x="2411" y="452.5" width="20" height="4" as="geometry"/>
                </mxCell>
                <mxCell id="195" value="" style="edgeStyle=none;orthogonalLoop=1;jettySize=auto;html=1;fontSize=26;fontColor=default;entryX=0.338;entryY=-0.044;entryDx=0;entryDy=0;entryPerimeter=0;" parent="1" target="189" edge="1">
                    <mxGeometry width="100" relative="1" as="geometry">
                        <mxPoint x="2551" y="390" as="sourcePoint"/>
                        <mxPoint x="2651" y="390" as="targetPoint"/>
                        <Array as="points"/>
                    </mxGeometry>
                </mxCell>
                <mxCell id="203" style="edgeStyle=none;html=1;fontSize=26;fontColor=default;" parent="1" source="202" target="189" edge="1">
                    <mxGeometry relative="1" as="geometry"/>
                </mxCell>
                <mxCell id="202" value="items ordenados&lt;br&gt;" style="text;html=1;align=center;verticalAlign=middle;resizable=0;points=[];autosize=1;strokeColor=none;fillColor=none;fontSize=28;fontColor=none;" parent="1" vertex="1">
                    <mxGeometry x="2341" y="580" width="230" height="50" as="geometry"/>
                </mxCell>
                <mxCell id="205" value="Busca Binaria" style="text;html=1;align=center;verticalAlign=middle;resizable=0;points=[];autosize=1;fontSize=31;fontStyle=1;fillColor=#f5f5f5;fontColor=#333333;strokeColor=#666666;" parent="1" vertex="1">
                    <mxGeometry x="2421" y="800" width="230" height="50" as="geometry"/>
                </mxCell>
                <mxCell id="206" value="[ 1 , 3 , 5 , 7 , 8 , 9 ]" style="text;html=1;align=center;verticalAlign=middle;resizable=0;points=[];autosize=1;strokeColor=none;fillColor=none;fontSize=28;fontColor=none;" parent="1" vertex="1">
                    <mxGeometry x="2390" y="900" width="270" height="50" as="geometry"/>
                </mxCell>
                <mxCell id="207" value="Quero achar o 7" style="text;html=1;align=center;verticalAlign=middle;resizable=0;points=[];autosize=1;strokeColor=none;fillColor=none;fontSize=19;fontColor=default;" parent="1" vertex="1">
                    <mxGeometry x="2451" y="855" width="160" height="40" as="geometry"/>
                </mxCell>
                <mxCell id="208" value="" style="whiteSpace=wrap;html=1;labelBackgroundColor=none;labelBorderColor=none;strokeColor=none;strokeWidth=1;fontSize=26;fontColor=default;fillColor=#FF3333;" parent="1" vertex="1">
                    <mxGeometry x="2531" y="940" width="20" height="4" as="geometry"/>
                </mxCell>
                <mxCell id="216" style="edgeStyle=none;html=1;entryX=0.423;entryY=1.016;entryDx=0;entryDy=0;entryPerimeter=0;fontSize=19;fontColor=default;" parent="1" source="215" target="206" edge="1">
                    <mxGeometry relative="1" as="geometry"/>
                </mxCell>
                <mxCell id="220" style="edgeStyle=none;html=1;entryX=0.46;entryY=0.02;entryDx=0;entryDy=0;entryPerimeter=0;fontSize=15;fontColor=default;" parent="1" source="215" target="217" edge="1">
                    <mxGeometry relative="1" as="geometry">
                        <Array as="points">
                            <mxPoint x="2530" y="975"/>
                        </Array>
                    </mxGeometry>
                </mxCell>
                <mxCell id="223" style="edgeStyle=none;html=1;fontSize=15;fontColor=default;" parent="1" source="215" target="221" edge="1">
                    <mxGeometry relative="1" as="geometry">
                        <Array as="points">
                            <mxPoint x="2410" y="1060"/>
                        </Array>
                    </mxGeometry>
                </mxCell>
                <mxCell id="215" value="meio" style="text;html=1;align=center;verticalAlign=middle;resizable=0;points=[];autosize=1;strokeColor=none;fillColor=none;fontSize=15;fontColor=default;" parent="1" vertex="1">
                    <mxGeometry x="2421" y="960" width="60" height="30" as="geometry"/>
                </mxCell>
                <mxCell id="217" value="[ 7 , 8 , 9 ]" style="text;html=1;align=center;verticalAlign=middle;resizable=0;points=[];autosize=1;strokeColor=none;fillColor=none;fontSize=28;fontColor=none;" parent="1" vertex="1">
                    <mxGeometry x="2471" y="1005" width="150" height="50" as="geometry"/>
                </mxCell>
                <mxCell id="218" value="" style="whiteSpace=wrap;html=1;labelBackgroundColor=none;labelBorderColor=none;strokeColor=none;strokeWidth=1;fontSize=26;fontColor=default;fillColor=#FF3333;" parent="1" vertex="1">
                    <mxGeometry x="2496" y="1051" width="20" height="4" as="geometry"/>
                </mxCell>
                <mxCell id="221" value="[ 7 ]" style="text;html=1;align=center;verticalAlign=middle;resizable=0;points=[];autosize=1;strokeColor=none;fillColor=none;fontSize=28;fontColor=none;" parent="1" vertex="1">
                    <mxGeometry x="2506" y="1080" width="70" height="50" as="geometry"/>
                </mxCell>
                <mxCell id="222" value="" style="whiteSpace=wrap;html=1;labelBackgroundColor=none;labelBorderColor=none;strokeColor=none;strokeWidth=1;fontSize=26;fontColor=default;fillColor=#FF3333;" parent="1" vertex="1">
                    <mxGeometry x="2532" y="1122" width="20" height="4" as="geometry"/>
                </mxCell>
                <mxCell id="225" style="edgeStyle=none;html=1;fontSize=15;fontColor=default;" parent="1" source="224" target="221" edge="1">
                    <mxGeometry relative="1" as="geometry"/>
                </mxCell>
                <mxCell id="224" value="Valor encotrado" style="text;html=1;align=center;verticalAlign=middle;resizable=0;points=[];autosize=1;strokeColor=none;fillColor=none;fontSize=15;fontColor=default;" parent="1" vertex="1">
                    <mxGeometry x="2680" y="1090" width="120" height="30" as="geometry"/>
                </mxCell>
                <mxCell id="226" value="&lt;b style=&quot;font-size: 18px;&quot;&gt;Complexidade:&lt;br&gt;&lt;/b&gt;O(log(n))" style="text;html=1;align=center;verticalAlign=middle;resizable=0;points=[];autosize=1;strokeColor=none;fillColor=none;fontSize=15;fontColor=default;" parent="1" vertex="1">
                    <mxGeometry x="2680" y="855" width="160" height="50" as="geometry"/>
                </mxCell>
            </root>
        </mxGraphModel>
    </diagram>
</mxfile>